<?xml version="1.0" encoding="utf-8"?>
<!-- Generator: Adobe Illustrator 24.2.3, SVG Export Plug-In . SVG Version: 6.00 Build 0)  -->
<svg version="1.1" id="Layer_1" xmlns="http://www.w3.org/2000/svg" xmlns:xlink="http://www.w3.org/1999/xlink" x="0px" y="0px"
	 viewBox="0 0 595.28 841.89" style="enable-background:new 0 0 595.28 841.89;" xml:space="preserve">
<g>
	<path d="M68.8,440.17c2.14-4.61,4.28-9.23,6.03-13c-0.87-5.21-1.6-9.6-2.29-13.76c-5.75-1.96-12.33-3.55-18.31-6.4
		c-7.96-3.79-14.24-9.66-12.75-19.57c1.34-8.9,8.15-14.03,15.78-16.88c5.07-1.89,11.08-1.33,16.69-1.64
		c1.75-0.1,3.53,0.54,6.16,0.98c-1.44-20.61-11.09-37.53-19.73-54.66c3.28-6.71,8.87-10.04,14.91-12.39
		c26.24-10.18,53.44-13.6,81.16-8.75c12.17,2.13,23.7,7.2,32.15,18.23c-5.45,15.15-10.58,30.42-9.66,46.87
		c5.19,1.08,9.63,2.13,14.12,2.9c10.94,1.87,17.69,12.51,17.46,22.15c-0.16,6.67-3.55,10.74-8.22,13.97
		c-4.14,2.86-9.03,4.65-14.21,7.23c0.2,1.18,0.5,2.89,0.86,5c10.17-1.22,19.62-0.91,25.72,9.12c-9.41-1.61-17.28-10.07-27.84-6.04
		c-0.4-2.7-0.71-4.78-0.97-6.51c-4.64,4.13-9.27,8.25-13.9,12.37c-0.26-0.24-0.52-0.49-0.78-0.73c2.37-1.68,4.74-3.36,7.1-5.04
		c-0.64-0.66-1.29-1.31-1.93-1.97c-0.92-16.68-4.84-19.46-20.76-22.34c-8.07-1.46-16.15-1.06-25.01,2.87
		c9.36,3.5,16.71,8.28,18.15,18.53c-5.07-5.37-8.47-12.8-17.13-13.54c-8.92-0.76-14.4,5.07-20.75,10.69
		c-5.18-4.03-5.68,3.12-9.1,4.22c-3.28-4.5-5.85-0.08-9.08,0.33c0.37,4.6,0.71,8.79,1.08,13.39c3.05-5.17,5.65-9.58,8.24-13.98
		c-2.17,6.56-4.34,13.11-6.59,19.88c-5.06-4.89-5.91-11.38-5.61-18.73c-3.97,0-7.61,0-12.09,0c-0.46,2.91-0.93,5.92-1.48,9.42
		c9.63-3.73,12.3-1.78,12.31,7.81c0,8.12-0.08,16.26,0.25,24.37c0.12,2.88,1.32,5.71,2.01,8.49c5.29,0,10.04,0,15.35,0
		c-0.65-6.33-1.65-12.36-1.82-18.41c-0.41-15.36,2.79-29.01,17.86-37.21c4.8-2.61,8.34-1.95,12.66,0.77
		c9.07,5.72,14.5,13.59,16.12,24.16c0.2,1.3,0.56,2.58,0.73,3.32c7.14-2.67,13.95-5.53,20.98-7.69c2.68-0.82,5.94-0.47,8.79,0.08
		c11.04,2.13,13.42,7.15,8.32,17.06c2,2.82,4.03,5.68,6.07,8.53c3.95,1.46,7.9,2.91,12.72,4.69c-0.92-3.27-1.68-5.96-2.58-9.2
		c2.04-0.48,3.94-0.93,6.46-1.52c-0.94-1.36-1.67-2.39-2.89-4.16c3.14-0.67,5.97-1.28,9.57-2.04c-3.57-3.12-6.75-5.9-10.39-9.09
		c2.02-1.16,3.84-2.2,5.75-3.3c-3.81-2.13-7.46-4.16-11.1-6.2c0.16-0.37,0.32-0.74,0.48-1.11c2.46,0.68,4.93,1.37,8.11,2.25
		c8.48-2.41,5.45-15.26,14.33-16.69c-1.65-4.77-3.03-8.77-4.41-12.77c-9.16-11.4-15.97-23.38-9.96-39.55
		c-4.78-4.16-7.28-9.89-3.7-15.61c4.35-6.95,11.55-9.41,19.92-8.1c2.78-1.93,5.64-3.91,9.31-6.45c-4.14-2.79-8-5.38-12.39-8.33
		c5.27-5.16,11.56-3.86,18.72-3.98c-8.46-9.5-18.38-14.58-29.54-18.46c6.9-6.56,15.75-7.06,24.63-7.48
		c0.19-0.59,0.37-1.19,0.56-1.78c-9.12-5.91-18.25-11.83-28.12-18.22c14.96-6.13,29.36-11.47,45.07-10.51
		c11.85,0.73,21.85,5.84,29.8,15.92c1.32-3.3,2.43-6.09,3.78-9.49c7.1,4.53,9.07,11.99,12.34,18.55c8.5-6.2,9.44-6.34,16.87-2.23
		c-4.58,7.49-4.91,15.53-2.38,23.76c1.76-0.26,3.51-0.52,5.91-0.88c-0.47,3.02-0.82,5.27-1.44,9.27c4.67-4.19,7.59-8.65,11.5-9.83
		c4.52-1.37,10.2-0.76,14.86,0.68c4.47,1.38,8.29,4.9,13.15,7.96c1.43,0.13,3.83,0.35,6.25,0.57c0.35-0.38,0.86-0.7,1.04-1.15
		c6.59-16.86,19.1-22.79,36.3-17.15c0.77,0.25,1.54,0.52,2.26,0.88c8.16,4.08,16.55,7.23,25.49,9.56
		c9.91,2.58,16.42,9.89,19.43,20.1c0.78,2.65,2.79,5.13,4.76,7.19c10.27,10.76,17.74,23.22,22.06,37.38
		c4.14,13.58,2.32,16.6-11.35,21.08c0.82,6.1,1.11,13.05-5.92,15.55c-5.65,2-12.06,1.85-20.93,3.02
		c-12.96,8.06-22.49-1.94-31.72-12.71c-7.86,18.04-7.89,18.06-23.95,20.26c-3.78,9.43-8.48,18.7-11.23,28.52
		c-5.18,18.43-34.55,40.29-55.2,39.24c-4.79-0.24-8.18,0.79-9.87,6.12c-7.16,22.65-23.52,30.1-44.94,28.76
		c-2.36-0.15-4.72-0.28-6.93-0.41c0,12.02,0.27,23.58-0.07,35.13c-0.38,12.97-4.86,25.06-10.88,36.21
		c-5.29,9.8-15.18,14.04-25.91,16.27c-2.99,0.62-6.5,1.66-8.49,3.74c-18.25,19.05-41.08,19.39-59.57-0.38
		c-3.24,4.29-6.49,8.37-9.51,12.61c-13.75,19.29-33.04,26.18-55.83,24.33c-8.13-0.66-16.12-2.95-24.31-4.52
		c-2.29-4.11-4.49-8.52-7.1-12.67c-10.11-16.11-7.38-34,7.18-46.42c2.4-2.05,4.66-4.27,7.52-6.9c-6.5-4.85-12.18-9.17-13.93-16.93
		c-2.31-10.21,2-13.23,12.16-13.95c11.37-0.81,21.55,3.58,31.6,4.19c5.09-4.36,9.5-8.14,12-10.28c11.9,1.13,21.15,2.01,31.14,2.96
		c6.15-8.63,1.9-17.92,1.38-28.05c-8.71,9.29-18.99,9.33-29.8,8.33c-13.7-1.27-26.58-4.69-38.42-11.82
		c-2.07-1.24-4.37-2.09-6.39-1.48c-10.49,2.15-20.9,5.14-31.51,6.19c-9.64,0.96-17.93-3.28-23.56-11.67
		c-4.79-7.14-2.98-13.89,4.88-17.14c2.94-1.22,6.23-1.72,9.41-2.21c2.93-0.46,5.93-0.47,9.36-0.71c2.53-6.7,6.66-11.69,14.83-12.57
		c1.81-0.2,3.21-4.14,5.25-6.99c0.23,0.09,1.81,0.68,3.95,1.49c0.3-3.21,0.55-5.81,0.83-8.84c-1.74-1.41-3.55-2.89-5.45-4.44
		c0.43-0.11,1.16-0.57,1.68-0.4c4.09,1.35,8.16,3.12,12.73-1.32c-0.74-2.46-1.64-5.41-2.53-8.35
		C68.97,439.98,68.8,440.17,68.8,440.17z M108.93,565.98c0.46,0.44,0.92,0.89,1.38,1.33c-1.78,2.09-3.27,4.56-5.4,6.2
		c-14.91,11.53-26.13,26.56-38.14,40.75c-3.74,4.42-9.02,9.51-6.95,16.96c19.69-0.69,33.7-11.98,47.74-23.56
		c-0.81,7.17-6.34,10.46-11.11,13.91c-5.21,3.77-10.88,7.19-16.82,9.6c-5.33,2.17-11.3,2.76-18.29,4.34
		c7.91,4.1,18.36,3.73,30.79-1.81c9.05-4.04,17.42-9.6,27.23-15.12c-5.14,13.49-16.33,17.3-27.02,21.73
		c15.86,0.38,32.1-7.65,54.58-35.66c-5.8-10.75-5.04-21.54-0.13-32.56c2.58-5.78,4.15-12.01,6.17-17.99
		c-3.55-2.24-6.07-3.77-8.54-5.4c-9.34-6.18-18.75-6.86-29.05-1.82c-11.02,5.38-22.5,5.14-33.76,0.06
		c-3.57-1.61-7.08-2.8-10.67,0.39c-1.94,7.18,0.81,13.16,6.58,16.78C87.36,570.27,98.02,572.48,108.93,565.98z M238.91,270.04
		c-0.11,0.48-0.21,0.96-0.32,1.45c-4.64-0.54-9.29-1.09-13.93-1.63c9.37,6.53,20.59,10.16,26.45,21.37
		c-5.43-0.33-10.43-0.64-15.44-0.94c-0.01,0.35-0.01,0.71-0.02,1.06c3.15,1.84,6.3,3.69,9.45,5.53c-7.08-0.37-12.69-6.16-21.49-4.57
		c10.85,6.32,23.42,9.17,25.99,22.49c-3.69,3.38-9.34-1.5-11.1,4.45c1.46,2.23,2.88,4.39,3.97,6.06
		c-5.02,4.45-9.56,8.47-14.57,12.92c7.84,3.18,14.39,2.31,20.86-0.32c10.27-4.16,20.31-9.04,30.84-12.37
		c17.76-5.6,35.43-6.68,52.38,3.73c7.83,4.82,16.36,8.51,25.76,13.32c-5.83-10.62-12.28-19.03-22.24-23.36
		c-9.28-4.04-19.17-6.67-28.13-9.7c2.68,0,6.32,0,11.84,0c-11.58-8.96-10.77-19.49-6.68-30.71c-0.77-0.12-1.54-0.23-2.31-0.35
		c-2.6,3.37-5.19,6.74-8.56,11.12c-3.74-7.97-7.13-15.2-10.52-22.43c-0.33,0.12-0.67,0.24-1,0.36c0,5.01,0,10.03,0,15.64
		c-9.94-6.69-17.63-14.63-29.44-18.37c-12.11-3.83-22.51-2.01-35.47,0.21C230.79,267.04,234.85,268.54,238.91,270.04z M95.47,465.9
		c11.75,15.47,12.33,25.98,2.46,38.45c-18.3-5.86-36.45-11.93-54.77-17.42c-9.33-2.8-18.91-3.88-27.35,1.89
		c-1.93,6.76,1.36,10.12,6.14,12.32c12.08,5.54,24.44,5.72,36.95,1.16c-10.97-0.08-21.86-0.39-32.8-5.66
		c5.19-4.68,10.35-4.18,15.38-3.51c14.38,1.9,27.97,6.57,40.67,13.36c12.01,6.43,24.45,8.39,37.69,6.3
		c12.94-2.05,22.93-8.29,30.14-19.63c6.28-9.88,8.47-20.98,11.03-31.93c0.8-3.43-1.57-7.61-2.49-11.45
		c-0.57,0.03-1.13,0.05-1.7,0.08c2.34-7.25,7.27-11.76,14.87-13.06c2.95-0.51,5.67,0.21,6.78,3.77c-2.85,0.51-5.15,0.93-6.3,1.14
		c6.96,7.38,14.33,14.14,20.4,21.9c6.98,8.93,9.9,19.7,10.31,31.07c0.3,8.4-4,13.81-11.3,17.03c-3.18,1.41-6.59,2.59-10.01,3.14
		c-6.86,1.12-13.79,1.73-21.89,2.7c13.36,1.97,24.91-0.33,35.79-5.65c8.33-4.07,12.5-12.62,10.1-21.79
		c-2.38-9.1-5.67-18.02-9.25-26.73c-2.63-6.4-5.14-13.23-12.06-16.29c0.62-3.76,1.16-7.07,1.64-10.04
		c-10.54-5.95-28.38-1.68-34.28,7.45c-1.83,2.83-2.32,5.42,0.52,7.94c0.38,0.34,0.21,1.29,0.35,2.37c-1.93-0.43-3.41-0.76-5.38-1.19
		c-4.32,6.74-8.7,13.58-13.85,21.6c-2.24,0-5.56,0.66-8.49-0.14c-5.37-1.47-10.57-3.67-15.73-5.83
		C104.72,467.45,100.93,463.77,95.47,465.9z M409.03,389.32c10.76,2.29,18.64-1.51,25.21-8.75c11.47-12.63,16.72-27.31,15.56-44.55
		c-1.37-20.48-13.67-32.93-35.26-33.39c-4.78,4.64-10.36,9.69-15.52,15.15c-7.27,7.7-15.68,10.08-25.7,6.56
		c-1.39-0.49-2.73-1.13-4.09-1.71c0.55,3.4,1.56,6.47,3.68,8.04c2.87,2.12,6.59,3.07,10.37,4.71c0,3.79,0,8.04,0,11.75
		c4.67,2.67,8.76,5.01,12.86,7.36c-0.17,0.38-0.33,0.75-0.5,1.13c-4.74-1.25-9.49-2.5-15.32-4.04c0,4.32,0,7.43,0,10.94
		c12.17-2.09,20.22,4.04,29,12.1c-1.31-6.24-2.27-10.85-3.36-16.06c2.25,1.14,3.86,1.97,5.32,2.71c1.64-1.44,3.05-2.69,5.95-5.24
		c-1.31,4.52-2.04,7.05-2.88,9.93c0.8,2.14,1.72,4.56,2.77,7.36c11.19-5.05,18.07-13.51,23.71-23.27
		c-0.68,19.9-14.29,26.97-31.01,30.53C409.54,383.63,409.33,386,409.03,389.32z M196.46,553.62c-8.82-3.69-16.98-6.54-25.64-5.99
		c-6.24,0.39-10.99,3.56-13.19,10.15c-4.88,14.62-3.89,29.31-0.24,43.78c1.68,6.65,6.68,11.92,13.8,13.68
		c12.82,3.18,24.11,0.22,33.58-8.77c-0.17-0.68-0.33-1.35-0.5-2.03c-2.76,0.62-5.53,1.23-8.29,1.85
		c-8.45-0.75-11.08-8.02-12.67-14.96C179.96,576.69,182.27,563.37,196.46,553.62z M125.96,299.49
		c10.34,18.62,9.59,38.65,10.88,58.98c-3.7,1.1-6.5,1.94-8.8,2.62c2.41,0.31,5.28,0.69,7.6,0.99c0.59,4.53,1.09,8.32,1.69,12.91
		c4.6-2.77,8.29-4.99,13.1-7.88c-3.8-1.38-5.97-2.16-8.14-2.94c0.09-0.35,0.18-0.7,0.28-1.05c3.94,0,7.87,0,11.26,0
		c1.74-20.95,3.43-41.3,5.16-62.09C150.35,296.47,136.83,295.43,125.96,299.49z M118.05,469.79c0.38,0.69,0.75,1.38,1.13,2.08
		c3.2-0.93,7.07-1.02,9.47-2.95c5.18-4.17,10.23-8.79,14.2-14.09c10.26-13.71,5.68-35.44-9.16-44.21c-2.42-1.43-6.34-1.92-9-1.07
		c-7.67,2.45-16.49,17.37-16.1,26.1c6.78-0.87,10.53,2.55,12.46,8.88c-1.3,2.02-2.56,3.98-3.91,6.08c2.49,0.52,4.53,0.95,6.57,1.38
		C125.35,459.23,124.16,465.2,118.05,469.79z M434.98,405.22c0.98-1.77,1.8-3.25,2.82-5.11c3.19,0.45,6.09,0.82,8.98,1.27
		c9.47,1.48,13.75-1.55,15.2-10.83c0.37-2.36,0.65-4.73,0.85-6.19c4-0.84,7.33-1.54,10.6-2.23c0.91-17.8-9.48-29.5-16.5-42.7
		c1.76,13.66-3.14,25.39-9.82,36.27c-6.83,11.11-16.32,19.1-30.76,19.12C422.68,402.99,425.96,404.84,434.98,405.22z M212.98,517.59
		c-3.93-2.11-6.5-3.5-7.85-4.23c-10.33,4.29-19.59,8.14-28.98,12.05c1.08,5.69,2.26,11.91,3.3,17.36
		c6.98,2.04,13.11,3.83,19.67,5.75c2.72-0.67,6.05-1.5,10.75-2.67C210.87,536.69,211.92,527.19,212.98,517.59z M409.93,298.62
		c-8.91-4.12-18-8.61-28.1-0.71c-7.56,5.91-9.75,13.05-7.76,21.94c7.09,2.98,11.8,1.58,18.49-4.94
		C398.1,309.5,403.86,304.3,409.93,298.62z M385.66,410.01c13.72-4.54,19.51-16.55,17.23-33.29c-5.77-4.36-10.9-10.9-21.06-7.57
		C387.05,382.44,390.7,395.33,385.66,410.01z M249.81,397.84c-0.8,5.93,2.93,7.42,7.18,8.5c15.03,3.84,26.96,12.32,35.82,24.89
		c5.03,7.13,9.28,14.81,13.72,21.98c0.1-0.32,0.46-1.51,0.72-2.34c0.83,1.02,1.79,2.19,3.69,4.52
		C303.43,424.43,276.32,399.16,249.81,397.84z M82.68,573.77c-5.46,4.16-11.22,7.36-15.35,12.01c-4.57,5.15-8.23,11.34-11.23,17.59
		c-2.84,5.89-2.32,12.42-0.41,18.77c6.03-19.36,19.68-32.72,34.72-46.12C86.96,575.01,84.51,574.3,82.68,573.77z M91.5,497.2
		c6.55-9.02,6.21-16.5-1.18-27.91c-5.91-0.61-11.77-0.71-15.38,5.61c-3.09,5.41-3.47,10.6,1.87,15.97c1.85-2.09,3.52-3.97,5.09-5.74
		c-1.81-1.71-3.13-2.96-4.46-4.22c0.2-0.21,0.4-0.43,0.6-0.64c1.65,0.6,3.29,1.2,6.26,2.28c-1.26-4-2.15-6.85-3.01-9.59
		c2.82,0,5.69,0,8.67,0c1.5,8.62-3.13,13.86-9.38,18.77C84.52,493.7,88.04,495.46,91.5,497.2z M329.59,309.36
		c9.28,4.82,18.03,9.37,27.34,14.21c0.71-2.06,1.63-4.75,2.41-7.03C348.62,302.09,335.17,299.2,329.59,309.36z M85.57,441.67
		c-1.55-6.58,1.94-13.4-2.13-20.5c-9.77,9.78-8.76,21.08-7.23,32.32c1.12,8.23,2.37,9.84,7.62,11.87
		C80.11,457.17,76.91,449.28,85.57,441.67z M63.21,486.31c0.41-0.55,0.82-1.11,1.24-1.66c-2.16-2.91-4.26-5.87-6.49-8.72
		c-2.52-3.22-5.7-5.05-9.89-3.56c-4.18,1.49-6.31,4.45-6.18,9.22C49.26,483.22,56.24,484.77,63.21,486.31z M67.23,547.89
		c-8.49,0.08-9.89,1.64-8.47,8.28c1.76,8.25,7.83,13.3,18.4,14.66C69.22,564.94,66.84,557.2,67.23,547.89z M90.99,388.79
		c0.11,0.7,0.23,1.41,0.34,2.11c10.93-1.86,21.86-3.72,32.79-5.58c-0.1-0.62-0.21-1.24-0.31-1.85
		C112.87,385.24,101.93,387.02,90.99,388.79z M75.46,467.98c0.5-0.58,1-1.17,1.5-1.75c-2.01-1.37-4.02-2.75-6-4.11
		c2.6-4.4,2.6-4.4-0.54-8.87C65.09,461.09,66.56,465.38,75.46,467.98z M96.88,500.35c6.11-6.19,6.57-16.83,1.2-24.32
		C97.71,483.47,97.29,492.01,96.88,500.35z M101.34,404.9c-12.03,0.79-22.62,1.49-33.32,2.2C78.91,410.74,89.49,409.29,101.34,404.9
		z"/>
	<path d="M421.57,420.14c6.45,2.02,7.77,3.88,6.72,9.52c-1.98,10.69-9.5,16.67-20.59,16.39c-1.61-0.04-3.22-0.01-4.66-0.01
		c-10.03-12.1-7.77-22.25,6.46-28.63c3.92,0.94,8.13,1.94,12.33,2.95c-6.19,1.07-12.38,2.14-18.46,3.2
		c-1.21,3.72-2.1,6.43-2.85,8.74c3.79,7.85,11.26,5.45,16.43,7.7c3.55-3.95,6.83-7.61,10.48-11.67
		C425.24,425.27,423.41,422.7,421.57,420.14z"/>
	<path d="M404.14,226.21c14.15,7.83,16.71,16.46,8.04,27.07c-4.56,0-9.29,0-14.79,0c-4.81-3.99-9.34-9.11-7.78-16.6
		C391.2,229.01,398.27,228.06,404.14,226.21z M395.91,232.9c3.6,15.58,4.83,16.95,13.74,15.78c3.41-10.54,3.16-13.01-1.09-16.79
		C404.06,227.9,400.16,229.84,395.91,232.9z"/>
	<path d="M350.65,235.41c-1.46,7.97-4.04,9.98-11.4,10.89c-8.22,1.01-14.22-2.56-16.92-15.09c3.41-1.39,7.06-2.89,10.71-4.38
		c0.25,0.52,0.49,1.05,0.74,1.57c-2.48,1.38-4.96,2.76-7.68,4.28c1.96,7.4,8.92,7.23,14.08,10.48c2.52-1.4,5.02-2.79,8.6-4.78
		c-2.24-2.96-4.01-5.3-5.79-7.64c0.25-0.32,0.49-0.64,0.74-0.95C346.15,231.76,348.58,233.73,350.65,235.41z"/>
	<path d="M468.24,436.28c-1.53-0.94-3.05-1.87-5.27-3.23c1.56,3.77,1.56,3.77,11.25,9.22c-11.38-0.06-13.44-2.12-12.66-13.07
		c6.38-5.59,13.9-7.93,22.18-4.79c4.86,1.85,7.44,6.01,5.95,12.39c-1.66,0-3.18,0-4.7,0c-0.34-6.36-5.08-8.98-10.21-12.13
		c-2.96,1.25-5.98,2.52-9.2,3.88C466.68,431.77,467.46,434.02,468.24,436.28z"/>
	<path d="M573.29,476.37c-1.07,6.29-2.45,12.54-3.06,18.87c-0.26,2.67,1.13,5.49,2.2,10.1c8.72-8.9,7.37-18.28,7.24-27.33
		c7.06,11.66,5.45,22-4.4,28.19C566.05,502.75,564.85,484.73,573.29,476.37z"/>
	<path d="M439.26,487.89c-5.9-3-6.68-6.55-3.05-13.85c2.42-4.86,10.11-7.36,15.29-4.97c7.99,3.69,11.13,11.3,7.18,20.15
		c-0.7-7.43-0.5-14.19-6.6-18.28C441.29,470.2,441.29,470.2,439.26,487.89z"/>
	<path d="M416.72,202.65c8.25-6.41,11.68-6.55,19.22-0.37c-2.89,6.03-8.08,8.84-14.39,9.42c-4.45,0.41-9.2,0.22-11.51-6.44
		c2.43-1.01,4.69-1.95,6.95-2.88c0.16,1.55,0.32,3.1,0.49,4.79c6,1.67,10.96,0.41,15.49-3.76
		C427.51,196.66,422.05,201.56,416.72,202.65z"/>
	<path d="M538.91,521.28c-1.62-1.09-3.24-2.18-5.22-3.5c-0.91-2.97-2.03-6.59-3.1-10.09c-10.49,2.23-11.75,7.32-4.88,19.18
		c3.14-1.26,6.48-2.6,9.92-3.99c0.2,0.3,0.64,0.98,1.08,1.65c-4.4,1.8-8.38,5.97-13.65,2.52c-6.56-11.9-5.83-16.67,3.22-21.56
		c8.63,0.52,10.66,7.74,13.77,13.8C540.25,519.67,539.32,520.61,538.91,521.28z"/>
	<path d="M546.79,393.17c-2.8,5.09-6.04,2.42-8.25-0.12c-3.05-3.5-5.32-7.68-8.16-11.93c4.52-4,4.72-12.59,15-10.73
		c-3.04,1.95-5.12,3.29-7.54,4.85c-1.7,6.96,0.55,12.31,7.07,15.94c0.74,0.41,1.16,1.42,1.72,2.15L546.79,393.17z"/>
	<path d="M250.17,231.2c0-2.3,0-5.19,0-9.17c3.32-1.03,7.02-2.19,10.72-3.34c0.05,0.17,0.1,0.35,0.15,0.52
		c-2.77,1.24-5.54,2.47-8.65,3.87c3.5,9.48,11.79,7.85,18.57,9.55c-5.07,3.89-7.71,4.74-10.58,3.43
		C257.14,234.57,253.94,233,250.17,231.2z"/>
	<path d="M531.58,423.67c-1.2-1.38-1.79-2.32-2.62-2.93c-1.06-0.78-2.31-1.3-4.43-2.46c-3.33,2.28-6.88,4.71-10.97,7.51
		c2.42,2.96,3.98,4.87,5.54,6.78c-0.2,0.27-0.41,0.55-0.61,0.82c-2.74-1.85-5.49-3.69-8.49-5.71c2.9-7.62,9.73-9.08,15.58-11.79
		c2.71,0.98,5.19,1.87,7.56,2.73c2.93,6.17-1.33,9.08-5.92,13.25C528.99,428.55,530.15,426.37,531.58,423.67z"/>
	<path d="M516.57,463.65c-2.57,1.39-5.14,2.77-7.61,4.11c-2.55,12.03,2.54,17.27,18.78,18.05c-3.81,1.58-6.39,2.64-9.26,3.83
		c-3.69-2.16-7.3-4.28-11.49-6.73C502.03,471.27,504.99,464.14,516.57,463.65z"/>
	<path d="M180.88,262.67c0.09,1.42,0.16,2.47,0.22,3.48c-3.92,3.38-13.41,0.14-20.86-7.23c0.69-2.35,1.42-4.86,2.22-7.61
		c1.48-0.32,2.95-0.64,4.43-0.96c0.38,0.5,0.76,1,1.14,1.5c-1.82,0.83-3.64,1.66-5.29,2.41
		C167.19,262.86,173.87,263.11,180.88,262.67z"/>
	<path d="M502.95,344.07c7.4-6.16,12.79-5.79,16.29,0.67C512.6,350.24,511.15,350.21,502.95,344.07z"/>
	<path d="M546.63,393.31c2.54-0.88,5.08-1.76,7.59-2.63c6.57-7.29,0.12-12.13-4.26-18.77c6.31,4.36,10.61,8.26,9.72,14.98
		c-0.72,5.45-5.26,9.68-10.08,10.23c-0.02-0.15-0.1-0.41-0.05-0.44c0.85-0.52,1.71-1.02,3.24-1.91c-2.5-0.67-4.26-1.14-6.01-1.61
		L546.63,393.31z"/>
	<path d="M362.11,472.21c3.81,2.48,6.95,4.53,10.42,6.79c-6.35,4.92-9.33,4.52-16.19-1.89
		C358.24,475.49,360.06,473.95,362.11,472.21z"/>
	<path d="M500.3,509.11c-2.85-8.34-5.93-10.48-15.6-9.98c-0.12,2.8-0.25,5.71-0.39,8.84c-1.19-1.37-2.37-2.74-3.87-4.47
		c1.19-2.42,2.35-4.76,3.36-6.81C495.72,494.33,503.07,500.11,500.3,509.11z"/>
	<path d="M542.35,306.49c9.96,5.29,11.23,7.62,8.93,16.46c-7.36,4.01-10.51,3.21-13.77-3.48l-0.15,0.13
		c3.92,0.43,7.64,4.84,11.76,0.7c1.92-6.78-4.73-9.06-6.93-13.63L542.35,306.49z"/>
	<path d="M494.73,415.35c3.5-5.87,7.37-9.49,13.66-9.78C508.31,413,504,416.32,494.73,415.35z"/>
	<path d="M410.33,457.67c6.63,1.27,12.09,2.52,15.43,8.21C417.42,469.21,412.25,466.67,410.33,457.67z"/>
	<path d="M502.19,292.25c-4.79,3.3-9.17,6.32-13.59,9.37c-2.91-1.22-7.15-0.08-6.18-5.83c4.06,0.41,7.89,0.8,12.96,1.31
		c1.24-4.26,2.43-8.35,3.8-13.08C500.02,286.31,500.77,288.34,502.19,292.25z"/>
	<path d="M398.85,499.99c7.13-0.8,12.14-3.72,12.68-11.86c3.06,4.05,3.39,7.69,1,10.57C408.51,503.55,403.71,501.22,398.85,499.99z"
		/>
	<path d="M68.97,439.98c-0.8-0.08-1.59-0.16-2.99-0.31c0.29,2.08,0.56,4,0.89,6.37c-2.79,0-5.51-0.35-8.08,0.1
		c-2.38,0.42-4.61,1.7-6.9,2.59c-0.24-0.56-0.47-1.12-0.71-1.68c3.61-1.57,7.22-3.14,11.14-4.85c0.16-2.38,0.36-5.53,0.57-8.69
		c0.69-0.16,1.39-0.33,2.08-0.49c1.28,2.38,2.55,4.76,3.83,7.15L68.97,439.98z"/>
	<path d="M537.52,319.47c-2.48-2.5-5.84-4.63-7.14-7.64c-0.82-1.91,0.64-6.16,2.46-7.56c3.26-2.52,7.04-1.59,9.51,2.23l-0.15,0.19
		c-2.49-0.41-4.98-0.81-9.39-1.53c1.26,4.05,2.09,6.77,2.94,9.48c0.52,1.66,1.08,3.31,1.61,4.97L537.52,319.47z"/>
	<path d="M421.39,310.13c10.43-1.26,18.55,4.79,19.89,14.46c1.09,7.81-3.89,12.31-11.7,10.56
		C419.84,332.98,415.32,319.8,421.39,310.13z M425.14,311.6c-5.15,5.11-5.14,5.24,0.52,15.14c2.97,0,6.24,0,9.45,0
		C435.78,318.27,433.85,315.39,425.14,311.6z"/>
</g>
</svg>
